<svg width="18" height="18" viewBox="0 0 18 18" fill="none" xmlns="http://www.w3.org/2000/svg">
<path fill-rule="evenodd" clip-rule="evenodd" d="M15 10.5751C15.4142 10.5751 15.75 10.9109 15.75 11.3251C15.7499 11.7393 15.4142 12.0751 15 12.0751H4.18555L6.45703 14.1454C6.76307 14.4245 6.7848 14.8989 6.50586 15.205C6.22678 15.5111 5.75237 15.5329 5.44629 15.2538L1.74512 11.8788C1.5163 11.6702 1.43891 11.3424 1.55078 11.0537C1.66274 10.7651 1.94048 10.5751 2.25 10.5751H15ZM10.7441 3.24506C11.0231 2.93906 11.4976 2.91641 11.8037 3.19525L15.5049 6.57025C15.7336 6.7788 15.8109 7.10679 15.6992 7.39545C15.5873 7.68419 15.3097 7.87494 15 7.87494H2.25C1.8358 7.87493 1.5 7.53915 1.5 7.12494C1.5 6.71074 1.8358 6.37496 2.25 6.37494H13.0645L10.793 4.30463C10.487 4.02563 10.4653 3.55115 10.7441 3.24506Z" fill="#D9DBE3"/>
</svg>
