<svg width="44" height="44" viewBox="0 0 44 44" fill="none" xmlns="http://www.w3.org/2000/svg">
<path fill-rule="evenodd" clip-rule="evenodd" d="M21.8701 14.2792C22.1181 14.0708 22.4642 14.0252 22.7578 14.162C23.0515 14.2987 23.2392 14.5929 23.2393 14.9169V29.0838C23.2392 29.4078 23.0515 29.702 22.7578 29.8387C22.4641 29.9755 22.1181 29.93 21.8701 29.7215L17.3652 25.9325H14.083C13.623 25.9323 13.2501 25.5595 13.25 25.0995V18.9012C13.2501 18.4412 13.623 18.0684 14.083 18.0682H17.3652L21.8701 14.2792ZM26.8428 16.0712C27.126 15.7085 27.65 15.6436 28.0127 15.9266C29.5182 17.1023 30.417 19.4603 30.417 22.0008C30.4169 24.5412 29.5181 26.8985 28.0127 28.0741C27.65 28.3571 27.126 28.2922 26.8428 27.9296C26.5599 27.5668 26.6247 27.0438 26.9873 26.7606C27.9453 26.0125 28.7499 24.2418 28.75 22.0008C28.75 19.7596 27.9453 17.9883 26.9873 17.2401C26.6248 16.9569 26.5599 16.4338 26.8428 16.0712ZM24.7559 19.3163C25.0878 18.9976 25.6158 19.0078 25.9346 19.3397L25.9355 19.3407L25.9365 19.3426L25.9453 19.3514L25.96 19.368C25.971 19.3803 25.9846 19.3956 26 19.4139C26.0308 19.4506 26.0702 19.4993 26.1143 19.5604C26.2023 19.6827 26.3113 19.8549 26.418 20.077C26.6327 20.5244 26.833 21.1685 26.833 22.0008C26.8329 22.833 26.6327 23.4764 26.418 23.9237C26.3113 24.1458 26.2023 24.318 26.1143 24.4403C26.0703 24.5014 26.0308 24.5502 26 24.5868C25.9846 24.6051 25.971 24.6204 25.96 24.6327L25.9453 24.6493L25.9365 24.6581L25.9355 24.66C25.6168 24.992 25.0879 25.0032 24.7559 24.6844C24.4279 24.3692 24.4137 23.8499 24.7217 23.5174L24.7236 23.5155C24.7293 23.5087 24.7433 23.4923 24.7617 23.4667C24.7987 23.4153 24.8552 23.3267 24.915 23.202C25.0336 22.955 25.1669 22.5571 25.167 22.0008C25.167 21.4443 25.0336 21.0458 24.915 20.7987C24.8552 20.674 24.7987 20.5854 24.7617 20.534C24.7433 20.5084 24.7293 20.492 24.7236 20.4852L24.7217 20.4833C24.4137 20.1508 24.4279 19.6315 24.7559 19.3163Z" fill="#E1B1C3"/>
</svg>
